<svg id="svg" version="1.1" width="400" height="400" xmlns="http://www.w3.org/2000/svg" xmlns:xlink="http://www.w3.org/1999/xlink" style="display: block;"><g id="svgg"><path id="path0" d="M160.800 4.129 C 152.420 7.212,11.292 68.533,9.673 69.794 C 2.166 75.643,1.020 87.100,7.234 94.178 C 8.388 95.492,47.873 124.018,49.134 124.448 C 49.815 124.681,75.544 142.966,75.574 143.239 C 75.588 143.371,74.843 143.820,73.918 144.237 C 64.529 148.471,62.244 163.232,69.847 170.541 C 70.921 171.574,86.920 183.314,105.400 196.630 C 123.880 209.946,139.048 220.975,139.106 221.139 C 139.165 221.303,138.265 221.772,137.106 222.180 C 124.887 226.487,120.110 236.320,125.207 246.674 C 127.202 250.728,128.300 251.448,162.848 271.376 C 180.752 281.703,204.310 295.307,215.200 301.609 C 226.090 307.910,253.810 323.920,276.800 337.187 C 299.790 350.454,319.140 361.702,319.800 362.183 C 323.362 364.777,340.831 374.418,342.989 374.980 C 356.748 378.564,368.321 364.501,362.294 351.523 C 361.421 349.643,351.281 336.352,349.536 334.800 C 349.065 334.381,293.203 263.719,279.138 245.751 C 278.891 245.435,280.534 244.865,284.685 243.826 C 296.685 240.822,301.000 236.266,301.000 226.600 C 301.000 220.251,302.042 221.783,272.080 184.073 C 257.516 165.743,245.600 150.595,245.600 150.412 C 245.600 150.228,246.905 149.684,248.500 149.203 C 256.354 146.832,260.751 142.342,262.039 135.374 C 263.279 128.664,263.189 128.501,239.762 95.200 C 197.971 35.794,192.800 28.415,192.800 28.194 C 192.800 27.616,179.601 9.223,178.080 7.682 C 173.999 3.546,166.548 2.014,160.800 4.129 M168.068 17.700 C 169.782 19.081,248.400 131.669,248.400 132.744 C 248.400 134.550,247.615 134.923,235.677 138.795 C 223.132 142.864,222.694 143.127,224.145 145.703 C 224.487 146.310,238.597 164.220,255.501 185.503 C 288.886 227.537,287.600 225.880,287.600 226.845 C 287.600 228.759,286.635 229.134,273.235 232.422 C 256.451 236.542,257.283 236.297,256.773 237.251 C 255.960 238.769,256.623 239.646,303.021 298.419 C 353.148 361.915,350.333 358.197,349.543 359.845 C 348.194 362.660,356.235 367.049,243.182 301.790 C 126.350 234.351,137.200 240.776,137.200 239.035 C 137.200 237.067,137.581 236.862,151.400 231.390 C 164.476 226.212,165.200 225.824,165.200 223.993 C 165.200 222.537,167.889 224.560,121.600 191.184 C 98.610 174.608,79.581 160.765,79.313 160.423 C 77.501 158.108,78.808 157.111,90.080 152.206 C 101.620 147.185,102.549 146.460,100.500 144.073 C 100.115 143.625,81.530 130.272,59.200 114.401 C 12.713 81.360,15.372 83.520,18.300 81.183 C 19.726 80.045,165.075 17.305,166.424 17.245 C 166.986 17.220,167.726 17.425,168.068 17.700 " stroke="none" fill="#000000" fill-rule="evenodd"></path><path id="path1" d="M64.914 159.000 C 64.917 160.100,64.995 160.503,65.087 159.895 C 65.179 159.286,65.177 158.386,65.082 157.895 C 64.987 157.403,64.911 157.900,64.914 159.000 M301.314 226.600 C 301.317 227.700,301.395 228.103,301.487 227.495 C 301.579 226.886,301.577 225.986,301.482 225.495 C 301.387 225.003,301.311 225.500,301.314 226.600 " stroke="none" fill="#303030" fill-rule="evenodd"></path><path id="path2" d="" stroke="none" fill="#9f9f9f" fill-rule="evenodd"></path><path id="path3" d="M92.238 49.216 C 51.999 66.581,18.735 81.097,18.319 81.474 C 16.067 83.511,14.196 82.020,59.393 114.201 C 91.188 136.840,101.077 144.074,101.371 144.909 C 102.111 147.013,101.022 147.748,90.025 152.566 C 79.454 157.197,78.801 157.632,79.349 159.675 C 79.524 160.330,92.012 169.553,122.226 191.342 C 148.569 210.339,165.025 222.456,165.299 223.058 C 166.439 225.560,166.146 225.742,151.800 231.470 C 137.383 237.226,136.412 237.800,137.608 239.853 C 138.004 240.533,143.355 243.842,153.800 249.866 C 162.380 254.815,209.315 281.909,258.101 310.075 C 352.834 364.768,348.168 362.225,349.278 359.789 C 349.967 358.277,351.807 360.699,302.677 298.450 C 277.262 266.248,256.386 239.589,256.286 239.207 C 255.584 236.521,255.893 236.386,271.463 232.579 C 279.348 230.651,286.115 228.804,286.500 228.475 C 288.179 227.038,288.274 227.167,255.397 185.800 C 222.003 143.783,222.614 144.624,224.100 142.708 C 224.375 142.353,229.666 140.426,235.857 138.424 C 247.285 134.730,248.100 134.345,248.100 132.634 C 248.100 130.589,168.063 17.596,166.633 17.622 C 165.923 17.635,134.353 31.042,92.238 49.216 " stroke="none" fill="#ffffff" fill-rule="evenodd"></path><path id="path4" d="M197.052 27.615 C 194.881 27.806,193.037 28.030,192.954 28.112 C 192.872 28.194,207.793 49.578,226.112 75.631 C 263.060 128.176,260.883 124.980,261.762 127.973 C 264.591 137.605,259.148 146.139,248.100 149.391 C 246.725 149.796,245.601 150.233,245.602 150.363 C 245.602 150.493,257.627 165.734,272.323 184.231 C 290.231 206.773,299.337 218.548,299.937 219.941 C 302.729 226.433,301.590 233.098,296.826 238.135 C 294.034 241.088,291.906 242.118,285.077 243.828 C 281.828 244.641,279.221 245.457,279.284 245.641 C 279.348 245.824,291.010 260.681,305.200 278.655 C 319.390 296.629,335.200 316.660,340.333 323.168 C 345.466 329.675,349.812 335.054,349.990 335.119 C 350.169 335.185,351.792 333.475,353.598 331.319 C 426.925 243.790,404.768 111.804,306.907 53.180 C 274.665 33.865,233.859 24.369,197.052 27.615 M45.487 131.500 C 23.581 176.593,21.129 230.456,38.850 277.299 C 80.836 388.282,214.786 431.740,313.930 366.545 C 317.081 364.473,319.595 362.584,319.516 362.349 C 319.438 362.113,314.159 358.908,307.787 355.227 C 301.414 351.546,274.600 336.057,248.200 320.807 C 221.800 305.557,184.450 284.003,165.200 272.911 C 122.041 248.040,123.444 249.185,123.413 238.800 C 123.386 230.021,126.948 225.878,138.201 221.600 C 139.279 221.190,139.236 221.142,134.947 218.048 C 132.556 216.324,117.190 205.251,100.800 193.442 C 84.410 181.634,70.245 171.163,69.322 170.172 C 61.980 162.293,64.385 148.849,73.986 144.099 L 75.631 143.285 62.392 133.842 C 55.111 128.649,49.104 124.400,49.045 124.400 C 48.985 124.400,47.384 127.595,45.487 131.500 " stroke="none" fill="#0558a5" fill-rule="evenodd"></path></g></svg>